<svg xmlns="http://www.w3.org/2000/svg" width="47.238" height="47.238" id="microsoft-powerpoint"><path fill="#ed6c47" d="M26.572 2.952A20.727 20.727 0 0 0 5.905 23.619l26.183 5.516Z"></path><path fill="#ff8f6b" d="M26.571 2.952a20.727 20.727 0 0 1 20.667 20.667l-10.334 7.023-10.333-7.023Z"></path><path fill="#d35230" d="M26.572 44.286a20.727 20.727 0 0 0 20.666-20.667H5.905a20.727 20.727 0 0 0 20.667 20.667Z"></path><path d="M24.605 10.333h-13.82a20.54 20.54 0 0 0 1.373 28.047h12.447a1.974 1.974 0 0 0 1.969-1.968V12.301a1.974 1.974 0 0 0-1.969-1.968Z" opacity=".1"></path><path d="M23.126 11.809H9.655a20.528 20.528 0 0 0 4.2 28.047h9.273a1.974 1.974 0 0 0 1.967-1.967V13.777a1.974 1.974 0 0 0-1.969-1.968Z" opacity=".2"></path><path d="M23.126 11.809H9.654a20.5 20.5 0 0 0 1.131 25.1h12.342a1.974 1.974 0 0 0 1.968-1.968V13.777a1.974 1.974 0 0 0-1.969-1.968Z" opacity=".2"></path><path d="M21.65 11.809h-12a20.5 20.5 0 0 0 1.135 25.1h10.866a1.974 1.974 0 0 0 1.968-1.968V13.777a1.974 1.974 0 0 0-1.969-1.968Z" opacity=".2"></path><path fill="#c43e1c" d="M1.968 11.809h19.683a1.968 1.968 0 0 1 1.968 1.968V33.46a1.968 1.968 0 0 1-1.968 1.968H1.968A1.968 1.968 0 0 1 0 33.46V13.777a1.968 1.968 0 0 1 1.968-1.968Z"></path><path fill="#f9f7f7" d="M11.805 16.233a6.153 6.153 0 0 1 4.067 1.188 4.248 4.248 0 0 1 1.411 3.441 4.024 4.024 0 0 1-.7 2.344 4.671 4.671 0 0 1-1.978 1.756 6.746 6.746 0 0 1-2.982.626H8.8V31H5.905V16.233ZM8.798 23.15h2.49a3.239 3.239 0 0 0 2.2-.655 1.634 1.634 0 0 0 .744-1.515q0-2.449-2.853-2.449H8.798Z"></path><path fill="none" d="M0 0h47.238v47.238H0Z"></path></svg>